# xmcd
#
# Track frame offsets: 
#        150
#        10781
#        20007
#        30980
#        38769
#        47630
#        58794
#        68073
#        77612
#        86945
#
# Disc length: 1284 seconds
#
# Revision: 0
# Processed by: cddbd v1.5.2PL0 Copyright (c) Steve Scherf et al.
# Submitted via: ExactAudioCopy v1.0b4
#
DISCID=7405020a
DTITLE=Various Artist - Steel Guitar Hall Of Fame
DYEAR=2013
DGENRE=Country
TTITLE0=Roy Wiggins - Tennessee Plowboy
TTITLE1=Buddy Emmons - Singing Strings Of Steel
TTITLE2=Don Helms - Opry Express
TTITLE3=Bashful Brother Oswald - Beneath The Willow
TTITLE4=Jimmy Day - Steel Driver
TTITLE5=Jerry Byrd - Hilo March
TTITLE6=Pete Drake - Pleading
TTITLE7=Leon McAuliff - Columbus Stockade Blues
TTITLE8=Herbie Remington - Nashville Glide
TTITLE9=Shot Jackson - Salty Dog
EXTD=
EXTT0=
EXTT1=
EXTT2=
EXTT3=
EXTT4=
EXTT5=
EXTT6=
EXTT7=
EXTT8=
EXTT9=
PLAYORDER=
